<svg width="1880" height="940" viewBox="0 0 1880 940" fill="none" xmlns="http://www.w3.org/2000/svg">
<g clip-path="url(#clip0_60_82)">
<rect width="1880" height="940" fill="#081118"/>
<path d="M-13 729.249C-13 729.249 95.9141 703.938 157.5 729.249C224.968 756.978 219.027 834.632 285 865.749C361.116 901.651 429.267 820.933 500.5 865.749C555.598 900.414 592.5 1004.75 592.5 1004.75" stroke="#46EF7F" stroke-width="10"/>
<path d="M1934.5 172.5C1934.5 172.5 1825.59 197.811 1764 172.5C1696.53 144.771 1702.47 67.118 1636.5 36.0001C1560.38 0.0983047 1492.23 80.8162 1421 36.0001C1365.9 1.33506 1329 -103 1329 -103" stroke="#0BE1D1" stroke-width="10"/>
<circle cx="35" cy="373" r="50" fill="#46EF7F"/>
<ellipse cx="805" rx="42" ry="44" fill="#0BE1D1"/>
<ellipse cx="1783" cy="690" rx="42" ry="44" fill="#46EF7F"/>
<ellipse cx="1162" cy="933" rx="42" ry="44" fill="#0BE1D1"/>
<path d="M447.177 212.009C451.224 207.972 457.776 207.972 461.824 212.009L479.442 229.575C485.704 235.82 494.817 238.262 503.363 235.985L527.403 229.581C532.927 228.109 538.601 231.384 540.089 236.904L546.563 260.927C548.865 269.466 555.535 276.136 564.073 278.437L588.095 284.912C593.616 286.4 596.891 292.073 595.42 297.597L589.015 321.637C586.739 330.183 589.18 339.295 595.426 345.557L612.992 363.177C616.902 367.098 617.024 373.369 613.358 377.437L612.992 377.824L595.426 395.442C589.18 401.704 586.739 410.817 589.015 419.363L595.42 443.403V443.404C596.891 448.928 593.615 454.601 588.095 456.089L564.073 462.563C555.535 464.865 548.865 471.535 546.563 480.073L540.089 504.095C538.601 509.615 532.928 512.891 527.404 511.42H527.403L503.363 505.015C495.084 502.81 486.274 505.032 480.038 510.851L479.442 511.426L461.824 528.992C457.776 533.029 451.224 533.029 447.177 528.992L429.557 511.426H429.558C423.296 505.179 414.183 502.739 405.637 505.015L381.597 511.42C376.073 512.891 370.4 509.616 368.912 504.095L362.437 480.073C360.208 471.802 353.878 465.284 345.721 462.792L344.927 462.563L320.904 456.089C315.384 454.601 312.109 448.927 313.581 443.403L319.985 419.363C322.262 410.817 319.82 401.704 313.575 395.442L296.009 377.824C291.972 373.776 291.972 367.224 296.009 363.177L313.574 345.557L313.575 345.558C319.82 339.296 322.262 330.183 319.985 321.637L313.581 297.597C312.109 292.073 315.384 286.4 320.904 284.912L344.927 278.437C353.466 276.136 360.136 269.466 362.437 260.927L368.912 236.904C370.4 231.384 376.073 228.109 381.597 229.581L405.637 235.985C414.183 238.262 423.296 235.82 429.558 229.575L429.557 229.574L447.177 212.009Z" fill="url(#paint0_linear_60_82)" fill-opacity="0.2" stroke="url(#paint1_linear_60_82)" stroke-width="5.65462"/>
<path d="M499.033 296.017C501.128 291.19 499.566 285.553 495.268 282.452C490.971 279.352 485.111 279.634 481.099 283.086L390.185 362.008C386.634 365.11 385.355 370.077 387.025 374.445C388.694 378.815 392.955 381.774 397.679 381.774H437.276L409.966 444.983C407.871 449.81 409.433 455.446 413.73 458.548C418.028 461.648 423.887 461.367 427.901 457.913L518.814 378.992C522.365 375.89 523.643 370.923 521.975 366.554C520.306 362.185 516.079 359.26 511.321 359.26H471.724L499.033 296.017Z" fill="url(#paint2_linear_60_82)"/>
<path d="M698.838 484.946C681.557 484.946 668.989 480.233 661.134 470.807C653.279 461.184 649.352 444.984 649.352 422.204V345.619C649.352 341.102 651.021 337.175 654.359 333.837C657.698 330.498 661.625 328.829 666.142 328.829H670.855C675.371 328.829 679.299 330.498 682.637 333.837C685.975 337.175 687.644 341.102 687.644 345.619V418.081C687.644 431.827 689.51 441.351 693.241 446.653C696.972 451.955 703.256 454.606 712.093 454.606C720.144 454.606 727.606 451.169 734.479 444.296C741.549 437.423 745.084 430.059 745.084 422.204V345.619C745.084 341.102 746.753 337.175 750.091 333.837C753.429 330.498 757.357 328.829 761.873 328.829H767.765C772.281 328.829 776.11 330.498 779.252 333.837C782.591 337.175 784.26 341.102 784.26 345.619V465.21C784.26 469.727 782.591 473.654 779.252 476.992C776.11 480.331 772.281 482 767.765 482H763.935C759.222 482 755.197 480.429 751.858 477.287C748.716 473.949 747.047 469.923 746.851 465.21L746.556 463.148C746.556 462.952 746.458 462.854 746.262 462.854C746.065 462.854 745.869 462.952 745.673 463.148C732.319 477.68 716.708 484.946 698.838 484.946ZM884.426 391.276C860.861 383.421 843.777 373.897 833.173 362.703C822.765 351.51 817.561 337.961 817.561 322.054C817.561 304.184 823.551 290.046 835.529 279.638C847.508 269.23 864.298 264.026 885.899 264.026C904.162 264.026 920.068 266.088 933.618 270.212C938.331 271.586 942.062 274.434 944.811 278.754C947.756 282.878 949.229 287.493 949.229 292.598V295.249C949.229 298.981 947.56 301.926 944.222 304.086C940.883 306.05 937.447 306.344 933.912 304.97C919.184 299.275 904.162 296.428 888.845 296.428C879.026 296.428 871.564 298.686 866.458 303.203C861.352 307.719 858.8 314.003 858.8 322.054C858.8 336.193 868.029 346.306 886.488 352.394C912.998 360.838 931.359 370.46 941.571 381.261C951.978 392.061 957.182 406.004 957.182 423.088C957.182 464.326 931.752 484.946 880.891 484.946C864.985 484.946 850.552 482.491 837.591 477.582C832.878 475.814 829.147 472.77 826.398 468.45C823.845 464.13 822.569 459.319 822.569 454.017V450.482C822.569 446.751 824.14 444.1 827.282 442.529C830.424 440.762 833.664 440.664 837.002 442.234C849.963 448.715 863.611 451.955 877.946 451.955C902.885 451.955 915.355 442.529 915.355 423.677C915.355 416.019 912.998 409.735 908.286 404.825C903.573 399.72 895.619 395.203 884.426 391.276ZM1029.43 385.385V425.445C1029.43 433.3 1032.77 440.271 1039.44 446.358C1046.32 452.446 1054.27 455.49 1063.3 455.49C1073.71 455.49 1081.96 451.268 1088.04 442.824C1094.13 434.38 1097.18 421.91 1097.18 405.415C1097.18 372.031 1085.88 355.34 1063.3 355.34C1054.27 355.34 1046.32 358.383 1039.44 364.471C1032.77 370.558 1029.43 377.53 1029.43 385.385ZM1007.34 546.803C1002.82 546.803 998.892 545.134 995.553 541.796C992.215 538.457 990.546 534.53 990.546 530.013V345.619C990.546 341.102 992.215 337.175 995.553 333.837C998.892 330.498 1002.82 328.829 1007.34 328.829H1010.87C1015.58 328.829 1019.61 330.498 1022.95 333.837C1026.29 336.979 1028.05 340.906 1028.25 345.619V347.681C1028.25 347.877 1028.35 347.976 1028.54 347.976C1028.74 347.976 1028.94 347.877 1029.13 347.681C1036.2 339.826 1043.27 334.229 1050.34 330.891C1057.41 327.553 1065.66 325.884 1075.08 325.884C1093.54 325.884 1108.27 332.855 1119.27 346.797C1130.27 360.543 1135.76 380.082 1135.76 405.415C1135.76 429.961 1129.97 449.402 1118.38 463.737C1106.99 477.876 1092.56 484.946 1075.08 484.946C1058 484.946 1043.17 478.76 1030.61 466.388C1030.41 466.192 1030.21 466.094 1030.02 466.094C1029.82 466.094 1029.72 466.192 1029.72 466.388V530.013C1029.72 534.53 1028.05 538.457 1024.71 541.796C1021.57 545.134 1017.74 546.803 1013.23 546.803H1007.34ZM1239.62 408.36C1211.54 408.36 1197.5 417.001 1197.5 434.281C1197.5 440.565 1199.27 445.671 1202.8 449.598C1206.53 453.526 1211.25 455.49 1216.94 455.49C1228.13 455.49 1237.17 452.053 1244.04 445.18C1250.91 438.111 1254.35 428.488 1254.35 416.313V411.011C1254.35 409.244 1253.47 408.36 1251.7 408.36H1239.62ZM1206.34 484.946C1192.98 484.946 1181.89 480.625 1173.05 471.985C1164.41 463.148 1160.09 451.759 1160.09 437.816C1160.09 420.732 1166.57 407.476 1179.53 398.051C1192.69 388.625 1212.72 383.912 1239.62 383.912H1251.7C1253.47 383.912 1254.35 383.028 1254.35 381.261V378.904C1254.35 369.871 1252.19 363.587 1247.87 360.052C1243.55 356.321 1235.89 354.456 1224.89 354.456C1213.5 354.456 1199.56 356.518 1183.07 360.642C1179.53 361.623 1176.29 361.034 1173.35 358.874C1170.4 356.518 1168.93 353.474 1168.93 349.743C1168.93 345.226 1170.3 341.201 1173.05 337.666C1175.8 333.935 1179.33 331.677 1183.65 330.891C1198.58 327.553 1212.62 325.884 1225.78 325.884C1250.91 325.884 1268.49 330.4 1278.5 339.433C1288.52 348.466 1293.53 364.274 1293.53 386.857V465.21C1293.53 469.727 1291.86 473.654 1288.52 476.992C1285.38 480.331 1281.55 482 1277.03 482H1273.79C1269.08 482 1265.05 480.429 1261.71 477.287C1258.37 473.949 1256.61 469.923 1256.41 465.21V461.086C1256.41 460.89 1256.31 460.792 1256.12 460.792C1255.72 460.792 1255.53 460.89 1255.53 461.086C1243.55 476.992 1227.15 484.946 1206.34 484.946ZM1349.36 482C1344.84 482 1340.91 480.331 1337.58 476.992C1334.24 473.654 1332.57 469.727 1332.57 465.21V345.619C1332.57 341.102 1334.24 337.175 1337.58 333.837C1340.91 330.498 1344.84 328.829 1349.36 328.829H1355.25C1359.77 328.829 1363.69 330.498 1367.03 333.837C1370.37 337.175 1372.04 341.102 1372.04 345.619V357.991C1372.04 358.187 1372.14 358.285 1372.33 358.285C1372.73 358.285 1372.92 358.187 1372.92 357.991C1378.62 350.136 1386.08 343.754 1395.31 338.844C1404.54 333.738 1414.65 330.597 1425.65 329.418C1429.77 329.026 1433.31 330.4 1436.25 333.542C1439.2 336.488 1440.67 340.022 1440.67 344.146C1440.67 348.27 1439.2 351.805 1436.25 354.75C1433.31 357.696 1429.77 359.365 1425.65 359.758C1390.89 362.507 1373.51 380.181 1373.51 412.779V465.21C1373.51 469.727 1371.84 473.654 1368.5 476.992C1365.17 480.331 1361.24 482 1356.72 482H1349.36ZM1493.8 482C1489.28 482 1485.35 480.331 1482.01 476.992C1478.67 473.654 1477.01 469.727 1477.01 465.21V277.87C1477.01 273.354 1478.67 269.426 1482.01 266.088C1485.35 262.75 1489.28 261.081 1493.8 261.081H1499.69C1504.2 261.081 1508.13 262.75 1511.47 266.088C1514.81 269.426 1516.48 273.354 1516.48 277.87V391.276C1516.48 391.472 1516.57 391.57 1516.77 391.57H1517.07L1561.84 341.201C1569.1 332.953 1578.33 328.829 1589.53 328.829H1601.9C1605.04 328.829 1607.2 330.302 1608.38 333.248C1609.75 336.193 1609.36 338.844 1607.2 341.201L1553.3 400.702C1552.31 401.88 1552.31 403.156 1553.3 404.531L1607.79 469.334C1609.95 471.887 1610.24 474.636 1608.67 477.582C1607.3 480.527 1605.04 482 1601.9 482H1589.53C1578.33 482 1569.2 477.68 1562.13 469.039L1517.07 414.546C1517.07 414.35 1516.97 414.251 1516.77 414.251C1516.57 414.251 1516.48 414.35 1516.48 414.546V465.21C1516.48 469.727 1514.81 473.654 1511.47 476.992C1508.13 480.331 1504.2 482 1499.69 482H1493.8Z" fill="white"/>
<path d="M274.617 739C272.559 739 270.77 738.24 269.249 736.719C267.818 735.198 267.102 733.408 267.102 731.351V648.683C267.102 646.625 267.818 644.836 269.249 643.315C270.77 641.794 272.559 641.034 274.617 641.034H277.569C282.669 641.034 286.427 643.27 288.842 647.744L321.99 707.597C321.99 707.687 322.035 707.731 322.124 707.731C322.214 707.731 322.258 707.687 322.258 707.597V648.683C322.258 646.625 323.019 644.836 324.54 643.315C326.061 641.794 327.85 641.034 329.908 641.034H332.86C334.918 641.034 336.662 641.794 338.094 643.315C339.615 644.836 340.375 646.625 340.375 648.683V731.351C340.375 733.408 339.615 735.198 338.094 736.719C336.662 738.24 334.918 739 332.86 739H329.908C324.808 739 321.05 736.763 318.635 732.29L285.487 672.437C285.487 672.347 285.443 672.302 285.353 672.302C285.264 672.302 285.219 672.347 285.219 672.437V731.351C285.219 733.408 284.458 735.198 282.938 736.719C281.417 738.24 279.627 739 277.569 739H274.617ZM388.701 680.354C384.138 680.354 380.604 681.652 378.099 684.246C375.684 686.751 374.163 690.822 373.536 696.458C373.536 697.174 373.894 697.532 374.61 697.532H400.913C401.629 697.532 401.987 697.174 401.987 696.458C401.629 685.722 397.201 680.354 388.701 680.354ZM392.056 740.342C380.336 740.342 371.3 737.3 364.948 731.216C358.685 725.043 355.554 716.007 355.554 704.108C355.554 692.298 358.372 683.307 364.008 677.134C369.645 670.96 377.786 667.874 388.433 667.874C408.294 667.874 418.494 679.147 419.03 701.692C419.12 703.839 418.359 705.629 416.749 707.06C415.139 708.492 413.26 709.207 411.113 709.207H374.476C373.671 709.207 373.358 709.61 373.536 710.415C374.163 716.41 376.131 720.793 379.441 723.567C382.841 726.251 387.762 727.593 394.203 727.593C398.229 727.593 402.703 726.922 407.623 725.58C409.234 725.133 410.71 725.401 412.052 726.385C413.484 727.369 414.199 728.711 414.199 730.411C414.199 732.469 413.573 734.303 412.32 735.913C411.157 737.434 409.592 738.374 407.623 738.732C402.613 739.805 397.424 740.342 392.056 740.342ZM442.399 731.619L428.979 676.597C428.532 674.718 428.89 673.018 430.053 671.497C431.305 669.976 432.871 669.216 434.75 669.216H438.105C440.341 669.216 442.31 669.931 444.01 671.363C445.709 672.794 446.738 674.584 447.096 676.731L455.417 724.104C455.417 724.193 455.461 724.238 455.551 724.238C455.73 724.238 455.819 724.193 455.819 724.104L464.274 676.731C464.721 674.584 465.795 672.794 467.495 671.363C469.195 669.931 471.118 669.216 473.265 669.216H479.975C482.212 669.216 484.18 669.931 485.88 671.363C487.58 672.794 488.609 674.584 488.967 676.731L497.421 724.104C497.421 724.193 497.511 724.238 497.69 724.238C497.779 724.238 497.824 724.193 497.824 724.104L506.144 676.731C506.592 674.584 507.665 672.794 509.365 671.363C511.065 669.931 512.989 669.216 515.136 669.216H517.954C519.922 669.216 521.488 669.976 522.651 671.497C523.904 673.018 524.262 674.718 523.725 676.597L510.305 731.619C509.768 733.766 508.605 735.556 506.815 736.987C505.116 738.329 503.147 739 500.911 739H494.201C492.053 739 490.13 738.284 488.43 736.853C486.73 735.421 485.657 733.632 485.209 731.485L476.486 685.454C476.486 685.365 476.441 685.32 476.352 685.32C476.262 685.32 476.218 685.365 476.218 685.454L467.495 731.485C467.137 733.632 466.108 735.421 464.408 736.853C462.708 738.284 460.74 739 458.503 739H451.793C449.646 739 447.678 738.329 445.888 736.987C444.099 735.556 442.936 733.766 442.399 731.619ZM595.829 656.332V685.454C595.829 686.17 596.232 686.528 597.037 686.528H603.747C619.672 686.528 627.635 680.846 627.635 669.484C627.635 659.374 620.254 654.319 605.492 654.319C602.808 654.319 599.989 654.543 597.037 654.99C596.232 655.169 595.829 655.617 595.829 656.332ZM584.959 739C582.901 739 581.112 738.24 579.591 736.719C578.07 735.198 577.31 733.408 577.31 731.351V649.354C577.31 647.207 578.025 645.283 579.457 643.583C580.888 641.884 582.678 640.944 584.825 640.765C592.429 640.049 599.766 639.692 606.834 639.692C619.985 639.692 629.827 642.152 636.358 647.073C642.889 651.904 646.154 658.748 646.154 667.605C646.154 673.957 644.41 679.549 640.921 684.38C637.521 689.212 632.913 692.611 627.098 694.58C627.008 694.58 626.964 694.624 626.964 694.714C626.964 694.893 627.008 694.982 627.098 694.982C631.392 697.666 635.06 702.945 638.102 710.818L646.154 731.887C646.781 733.587 646.557 735.198 645.483 736.719C644.499 738.24 643.113 739 641.323 739H637.163C634.837 739 632.734 738.374 630.856 737.121C628.977 735.779 627.635 734.035 626.83 731.887L619.314 711.22C617.704 706.926 615.87 704.108 613.812 702.766C611.754 701.424 608.22 700.753 603.21 700.753H597.037C596.232 700.753 595.829 701.155 595.829 701.961V731.351C595.829 733.408 595.069 735.198 593.548 736.719C592.116 738.24 590.372 739 588.314 739H584.959ZM686.852 680.354C682.289 680.354 678.755 681.652 676.25 684.246C673.834 686.751 672.313 690.822 671.687 696.458C671.687 697.174 672.045 697.532 672.761 697.532H699.064C699.78 697.532 700.138 697.174 700.138 696.458C699.78 685.722 695.351 680.354 686.852 680.354ZM690.207 740.342C678.487 740.342 669.45 737.3 663.098 731.216C656.836 725.043 653.704 716.007 653.704 704.108C653.704 692.298 656.522 683.307 662.159 677.134C667.795 670.96 675.937 667.874 686.583 667.874C706.445 667.874 716.644 679.147 717.181 701.692C717.271 703.839 716.51 705.629 714.9 707.06C713.289 708.492 711.41 709.207 709.263 709.207H672.626C671.821 709.207 671.508 709.61 671.687 710.415C672.313 716.41 674.282 720.793 677.592 723.567C680.992 726.251 685.912 727.593 692.354 727.593C696.38 727.593 700.853 726.922 705.774 725.58C707.384 725.133 708.861 725.401 710.203 726.385C711.634 727.369 712.35 728.711 712.35 730.411C712.35 732.469 711.724 734.303 710.471 735.913C709.308 737.434 707.742 738.374 705.774 738.732C700.764 739.805 695.575 740.342 690.207 740.342ZM755.683 710.818C746.289 708.76 739.579 705.942 735.553 702.363C731.616 698.785 729.648 694.132 729.648 688.406C729.648 681.965 732.019 676.955 736.761 673.376C741.592 669.708 748.705 667.874 758.099 667.874C764.003 667.874 769.864 668.411 775.679 669.484C777.647 669.842 779.213 670.826 780.376 672.437C781.628 673.957 782.255 675.747 782.255 677.805C782.255 679.504 781.584 680.891 780.242 681.965C778.9 682.949 777.379 683.217 775.679 682.77C770.669 681.517 765.39 680.891 759.843 680.891C751.791 680.891 747.765 683.128 747.765 687.601C747.765 689.748 748.526 691.538 750.047 692.969C751.567 694.401 754.162 695.519 757.83 696.324C768.119 698.382 775.142 701.155 778.9 704.645C782.747 708.134 784.67 713.233 784.67 719.944C784.67 726.385 782.255 731.395 777.423 734.974C772.592 738.553 765.569 740.342 756.354 740.342C750.36 740.342 744.231 739.626 737.969 738.195C736 737.747 734.39 736.719 733.137 735.108C731.885 733.408 731.258 731.485 731.258 729.338C731.258 727.638 731.929 726.34 733.271 725.446C734.703 724.551 736.224 724.327 737.834 724.775C743.65 726.385 749.152 727.19 754.341 727.19C762.482 727.19 766.553 724.775 766.553 719.944C766.553 717.617 765.748 715.783 764.138 714.441C762.617 713.099 759.798 711.891 755.683 710.818ZM822.995 740.342C815.122 740.342 809.396 738.195 805.817 733.9C802.239 729.516 800.449 722.135 800.449 711.757V676.865C800.449 674.807 801.21 673.018 802.731 671.497C804.252 669.976 806.041 669.216 808.099 669.216H810.246C812.304 669.216 814.093 669.976 815.614 671.497C817.135 673.018 817.895 674.807 817.895 676.865V709.878C817.895 716.141 818.745 720.48 820.445 722.896C822.145 725.312 825.008 726.519 829.034 726.519C832.702 726.519 836.102 724.954 839.233 721.822C842.454 718.691 844.065 715.336 844.065 711.757V676.865C844.065 674.807 844.825 673.018 846.346 671.497C847.867 669.976 849.656 669.216 851.714 669.216H854.398C856.456 669.216 858.2 669.976 859.632 671.497C861.153 673.018 861.913 674.807 861.913 676.865V731.351C861.913 733.408 861.153 735.198 859.632 736.719C858.2 738.24 856.456 739 854.398 739H852.653C850.506 739 848.672 738.284 847.151 736.853C845.72 735.332 844.959 733.498 844.87 731.351L844.736 730.411C844.736 730.322 844.691 730.277 844.601 730.277C844.512 730.277 844.422 730.322 844.333 730.411C838.249 737.032 831.137 740.342 822.995 740.342ZM892.084 739C890.026 739 888.237 738.24 886.716 736.719C885.195 735.198 884.435 733.408 884.435 731.351V645.999C884.435 643.941 885.195 642.152 886.716 640.631C888.237 639.11 890.026 638.35 892.084 638.35H895.573C897.631 638.35 899.421 639.11 900.941 640.631C902.462 642.152 903.223 643.941 903.223 645.999V731.351C903.223 733.408 902.462 735.198 900.941 736.719C899.421 738.24 897.631 739 895.573 739H892.084ZM928.84 684.917C927.051 684.917 925.53 684.291 924.278 683.038C923.025 681.696 922.399 680.131 922.399 678.341C922.399 676.552 923.025 675.031 924.278 673.779C925.53 672.526 927.051 671.9 928.84 671.9H935.282C936.087 671.9 936.49 671.497 936.49 670.692V654.051C936.49 651.993 937.206 650.204 938.637 648.683C940.158 647.162 941.947 646.402 944.005 646.402H946.689C948.747 646.402 950.536 647.162 952.057 648.683C953.578 650.204 954.339 651.993 954.339 654.051V670.692C954.339 671.497 954.741 671.9 955.546 671.9H970.845C972.635 671.9 974.156 672.526 975.408 673.779C976.75 675.031 977.421 676.552 977.421 678.341C977.421 680.131 976.75 681.696 975.408 683.038C974.156 684.291 972.635 684.917 970.845 684.917H955.546C954.741 684.917 954.339 685.275 954.339 685.991V713.099C954.339 718.915 954.965 722.672 956.217 724.372C957.47 726.072 960.064 726.922 964.001 726.922C966.148 726.922 967.759 726.832 968.832 726.654C970.622 726.475 972.187 726.877 973.529 727.861C974.871 728.845 975.542 730.187 975.542 731.887C975.542 733.856 974.871 735.645 973.529 737.255C972.277 738.776 970.711 739.626 968.832 739.805C964.896 740.163 961.943 740.342 959.975 740.342C951.297 740.342 945.213 738.508 941.724 734.84C938.235 731.082 936.49 724.417 936.49 714.844V685.991C936.49 685.275 936.087 684.917 935.282 684.917H928.84ZM1018.71 710.818C1009.32 708.76 1002.61 705.942 998.581 702.363C994.644 698.785 992.676 694.132 992.676 688.406C992.676 681.965 995.047 676.955 999.789 673.376C1004.62 669.708 1011.73 667.874 1021.13 667.874C1027.03 667.874 1032.89 668.411 1038.71 669.484C1040.67 669.842 1042.24 670.826 1043.4 672.437C1044.66 673.957 1045.28 675.747 1045.28 677.805C1045.28 679.504 1044.61 680.891 1043.27 681.965C1041.93 682.949 1040.41 683.217 1038.71 682.77C1033.7 681.517 1028.42 680.891 1022.87 680.891C1014.82 680.891 1010.79 683.128 1010.79 687.601C1010.79 689.748 1011.55 691.538 1013.07 692.969C1014.6 694.401 1017.19 695.519 1020.86 696.324C1031.15 698.382 1038.17 701.155 1041.93 704.645C1045.77 708.134 1047.7 713.233 1047.7 719.944C1047.7 726.385 1045.28 731.395 1040.45 734.974C1035.62 738.553 1028.6 740.342 1019.38 740.342C1013.39 740.342 1007.26 739.626 1001 738.195C999.028 737.747 997.418 736.719 996.165 735.108C994.913 733.408 994.286 731.485 994.286 729.338C994.286 727.638 994.957 726.34 996.299 725.446C997.731 724.551 999.252 724.327 1000.86 724.775C1006.68 726.385 1012.18 727.19 1017.37 727.19C1025.51 727.19 1029.58 724.775 1029.58 719.944C1029.58 717.617 1028.78 715.783 1027.17 714.441C1025.64 713.099 1022.83 711.891 1018.71 710.818ZM1137.31 657.674L1125.5 699.813C1125.41 700.082 1125.46 700.35 1125.64 700.619C1125.82 700.887 1126.04 701.021 1126.31 701.021H1148.58C1148.85 701.021 1149.08 700.887 1149.26 700.619C1149.43 700.35 1149.48 700.082 1149.39 699.813L1137.58 657.674C1137.58 657.585 1137.54 657.54 1137.45 657.54C1137.36 657.54 1137.31 657.585 1137.31 657.674ZM1102.55 739C1100.67 739 1099.2 738.24 1098.13 736.719C1097.05 735.198 1096.83 733.543 1097.45 731.753L1125.23 648.28C1126.04 646.133 1127.34 644.389 1129.13 643.047C1131 641.705 1133.06 641.034 1135.3 641.034H1140.13C1142.46 641.034 1144.51 641.705 1146.3 643.047C1148.18 644.389 1149.48 646.133 1150.19 648.28L1177.97 731.753C1178.6 733.543 1178.38 735.198 1177.3 736.719C1176.23 738.24 1174.75 739 1172.87 739H1168.04C1165.9 739 1163.88 738.329 1162 736.987C1160.22 735.556 1159.01 733.766 1158.38 731.619L1154.09 716.454C1154 715.739 1153.51 715.381 1152.61 715.381H1122.28C1121.48 715.381 1120.98 715.739 1120.8 716.454L1116.51 731.619C1115.97 733.766 1114.77 735.556 1112.89 736.987C1111.1 738.329 1109.08 739 1106.85 739H1102.55ZM1197.61 739C1195.55 739 1193.76 738.24 1192.24 736.719C1190.72 735.198 1189.96 733.408 1189.96 731.351V676.865C1189.96 674.807 1190.72 673.018 1192.24 671.497C1193.76 669.976 1195.55 669.216 1197.61 669.216H1200.29C1202.35 669.216 1204.14 669.976 1205.66 671.497C1207.18 673.018 1207.94 674.807 1207.94 676.865V682.502C1207.94 682.591 1207.99 682.636 1208.08 682.636C1208.26 682.636 1208.35 682.591 1208.35 682.502C1210.94 678.923 1214.34 676.015 1218.55 673.779C1222.75 671.452 1227.36 670.021 1232.37 669.484C1234.25 669.305 1235.86 669.931 1237.2 671.363C1238.54 672.705 1239.21 674.315 1239.21 676.194C1239.21 678.073 1238.54 679.683 1237.2 681.025C1235.86 682.367 1234.25 683.128 1232.37 683.307C1216.53 684.559 1208.62 692.611 1208.62 707.463V731.351C1208.62 733.408 1207.85 735.198 1206.33 736.719C1204.81 738.24 1203.02 739 1200.97 739H1197.61ZM1280.93 680.354C1276.36 680.354 1272.83 681.652 1270.32 684.246C1267.91 686.751 1266.39 690.822 1265.76 696.458C1265.76 697.174 1266.12 697.532 1266.83 697.532H1293.14C1293.85 697.532 1294.21 697.174 1294.21 696.458C1293.85 685.722 1289.42 680.354 1280.93 680.354ZM1284.28 740.342C1272.56 740.342 1263.52 737.3 1257.17 731.216C1250.91 725.043 1247.78 716.007 1247.78 704.108C1247.78 692.298 1250.6 683.307 1256.23 677.134C1261.87 670.96 1270.01 667.874 1280.66 667.874C1300.52 667.874 1310.72 679.147 1311.25 701.692C1311.34 703.839 1310.58 705.629 1308.97 707.06C1307.36 708.492 1305.48 709.207 1303.34 709.207H1266.7C1265.89 709.207 1265.58 709.61 1265.76 710.415C1266.39 716.41 1268.35 720.793 1271.67 723.567C1275.06 726.251 1279.99 727.593 1286.43 727.593C1290.45 727.593 1294.93 726.922 1299.85 725.58C1301.46 725.133 1302.93 725.401 1304.28 726.385C1305.71 727.369 1306.42 728.711 1306.42 730.411C1306.42 732.469 1305.8 734.303 1304.54 735.913C1303.38 737.434 1301.82 738.374 1299.85 738.732C1294.84 739.805 1289.65 740.342 1284.28 740.342ZM1372.73 739C1370.67 739 1368.88 738.24 1367.36 736.719C1365.93 735.198 1365.21 733.408 1365.21 731.351V648.683C1365.21 646.625 1365.93 644.836 1367.36 643.315C1368.88 641.794 1370.67 641.034 1372.73 641.034H1377.02C1379.08 641.034 1380.87 641.794 1382.39 643.315C1383.91 644.836 1384.67 646.625 1384.67 648.683V722.225C1384.67 723.03 1385.03 723.433 1385.75 723.433H1420.24C1422.29 723.433 1424.04 724.193 1425.47 725.714C1426.99 727.146 1427.75 728.89 1427.75 730.948V731.351C1427.75 733.408 1426.99 735.198 1425.47 736.719C1424.04 738.24 1422.29 739 1420.24 739H1372.73ZM1455.88 739C1453.83 739 1452.04 738.24 1450.52 736.719C1448.99 735.198 1448.23 733.408 1448.23 731.351V676.865C1448.23 674.807 1448.99 673.018 1450.52 671.497C1452.04 669.976 1453.83 669.216 1455.88 669.216H1459.37C1461.43 669.216 1463.22 669.976 1464.74 671.497C1466.26 673.018 1467.02 674.807 1467.02 676.865V731.351C1467.02 733.408 1466.26 735.198 1464.74 736.719C1463.22 738.24 1461.43 739 1459.37 739H1455.88ZM1455.88 654.454C1453.83 654.454 1452.04 653.693 1450.52 652.172C1448.99 650.651 1448.23 648.862 1448.23 646.804V645.999C1448.23 643.941 1448.99 642.152 1450.52 640.631C1452.04 639.11 1453.83 638.35 1455.88 638.35H1459.37C1461.43 638.35 1463.22 639.11 1464.74 640.631C1466.26 642.152 1467.02 643.941 1467.02 645.999V646.804C1467.02 648.862 1466.26 650.651 1464.74 652.172C1463.22 653.693 1461.43 654.454 1459.37 654.454H1455.88ZM1503.24 731.753L1485.39 676.463C1484.77 674.673 1484.99 673.018 1486.06 671.497C1487.23 669.976 1488.75 669.216 1490.63 669.216H1494.65C1496.89 669.216 1498.9 669.931 1500.69 671.363C1502.48 672.705 1503.64 674.45 1504.18 676.597L1517.6 728.532C1517.6 728.622 1517.65 728.667 1517.74 728.667C1517.82 728.667 1517.87 728.622 1517.87 728.532L1531.29 676.597C1531.83 674.45 1532.99 672.705 1534.78 671.363C1536.57 669.931 1538.58 669.216 1540.82 669.216H1544.31C1546.19 669.216 1547.66 669.976 1548.74 671.497C1549.9 673.018 1550.17 674.673 1549.54 676.463L1531.69 731.753C1531.07 733.9 1529.81 735.645 1527.93 736.987C1526.15 738.329 1524.09 739 1521.76 739H1513.17C1510.94 739 1508.88 738.329 1507 736.987C1505.21 735.645 1503.96 733.9 1503.24 731.753ZM1588.51 680.354C1583.95 680.354 1580.41 681.652 1577.91 684.246C1575.49 686.751 1573.97 690.822 1573.35 696.458C1573.35 697.174 1573.7 697.532 1574.42 697.532H1600.72C1601.44 697.532 1601.8 697.174 1601.8 696.458C1601.44 685.722 1597.01 680.354 1588.51 680.354ZM1591.87 740.342C1580.15 740.342 1571.11 737.3 1564.76 731.216C1558.5 725.043 1555.36 716.007 1555.36 704.108C1555.36 692.298 1558.18 683.307 1563.82 677.134C1569.46 670.96 1577.6 667.874 1588.24 667.874C1608.1 667.874 1618.3 679.147 1618.84 701.692C1618.93 703.839 1618.17 705.629 1616.56 707.06C1614.95 708.492 1613.07 709.207 1610.92 709.207H1574.29C1573.48 709.207 1573.17 709.61 1573.35 710.415C1573.97 716.41 1575.94 720.793 1579.25 723.567C1582.65 726.251 1587.57 727.593 1594.01 727.593C1598.04 727.593 1602.51 726.922 1607.43 725.58C1609.04 725.133 1610.52 725.401 1611.86 726.385C1613.29 727.369 1614.01 728.711 1614.01 730.411C1614.01 732.469 1613.38 734.303 1612.13 735.913C1610.97 737.434 1609.4 738.374 1607.43 738.732C1602.42 739.805 1597.23 740.342 1591.87 740.342Z" fill="url(#paint3_linear_60_82)"/>
</g>
<defs>
<linearGradient id="paint0_linear_60_82" x1="360.993" y1="227.657" x2="565.275" y2="519.801" gradientUnits="userSpaceOnUse">
<stop offset="0.395057" stop-color="#0BE1D1"/>
<stop offset="0.841346" stop-color="#63F656"/>
</linearGradient>
<linearGradient id="paint1_linear_60_82" x1="454.5" y1="206.154" x2="454.5" y2="534.847" gradientUnits="userSpaceOnUse">
<stop stop-color="#0BE1D1"/>
<stop offset="1" stop-color="#53F26E"/>
</linearGradient>
<linearGradient id="paint2_linear_60_82" x1="415.696" y1="292.102" x2="534.702" y2="420.782" gradientUnits="userSpaceOnUse">
<stop offset="0.395057" stop-color="#0BE1D1"/>
<stop offset="0.841346" stop-color="#63F656"/>
</linearGradient>
<linearGradient id="paint3_linear_60_82" x1="-820" y1="204" x2="1253" y2="763" gradientUnits="userSpaceOnUse">
<stop offset="0.137568" stop-color="#63F656"/>
<stop offset="0.992893" stop-color="#0BE1D1"/>
</linearGradient>
<clipPath id="clip0_60_82">
<rect width="1880" height="940" fill="white"/>
</clipPath>
</defs>
</svg>
