<svg width="2394" height="765" viewBox="0 0 2394 765" fill="none" xmlns="http://www.w3.org/2000/svg">
<g clip-path="url(#clip0_1965_3036)">
<path d="M2394 0H0V765H2394V0Z" fill="black"/>
<g filter="url(#filter0_ii_1965_3036)">
<path d="M519.688 141.384C527.108 133.985 539.115 133.985 546.535 141.384L565.565 160.359C570.361 165.14 577.338 167.01 583.882 165.267L609.851 158.349C619.976 155.652 630.373 161.655 633.1 171.772L640.093 197.72C641.856 204.259 646.964 209.367 653.503 211.13L679.45 218.123C689.567 220.849 695.571 231.247 692.874 241.372L685.956 267.341C684.213 273.884 686.083 280.862 690.864 285.657L709.84 304.688C717.238 312.108 717.238 324.115 709.84 331.535L690.864 350.565C686.083 355.361 684.213 362.338 685.956 368.882L692.874 394.851C695.571 404.976 689.567 415.373 679.45 418.1L653.503 425.093C646.964 426.856 641.856 431.964 640.093 438.503L633.1 464.45C630.373 474.567 619.976 480.571 609.851 477.874L583.882 470.956C577.338 469.213 570.361 471.083 565.565 475.864L546.535 494.84C539.115 502.238 527.108 502.238 519.688 494.84L500.657 475.864C495.862 471.083 488.884 469.213 482.341 470.956L456.372 477.874C446.247 480.571 435.849 474.567 433.123 464.45L426.13 438.503C424.367 431.964 419.259 426.856 412.72 425.093L386.772 418.1C376.655 415.373 370.652 404.976 373.349 394.851L380.267 368.882C382.01 362.338 380.14 355.361 375.359 350.565L356.384 331.535C348.985 324.115 348.985 312.108 356.384 304.688L375.359 285.657C380.14 280.862 382.01 273.884 380.267 267.341L373.349 241.372C370.652 231.247 376.655 220.849 386.772 218.123L412.72 211.13C419.259 209.367 424.367 204.259 426.13 197.72L433.123 171.772C435.849 161.655 446.247 155.652 456.372 158.349L482.341 165.267C488.884 167.01 495.862 165.14 500.657 160.359L519.688 141.384Z" fill="url(#paint0_linear_1965_3036)"/>
</g>
<path d="M543.166 144.763L562.197 163.738C568.196 169.719 576.924 172.058 585.111 169.877L611.079 162.96C618.663 160.939 626.451 165.436 628.494 173.014L635.488 198.962C637.692 207.142 644.081 213.532 652.262 215.736L678.209 222.73C685.787 224.772 690.284 232.561 688.264 240.145L681.346 266.113C679.166 274.299 681.505 283.028 687.486 289.027L706.461 308.058C712.003 313.615 712.003 322.609 706.461 328.166L687.486 347.197C681.505 353.196 679.166 361.924 681.346 370.111L688.264 396.079C690.284 403.663 685.787 411.451 678.209 413.494L652.262 420.488C644.081 422.692 637.692 429.081 635.488 437.262L628.494 463.209C626.451 470.787 618.663 475.284 611.079 473.264L585.111 466.346C576.924 464.166 568.196 466.505 562.197 472.486L543.166 491.461C537.609 497.003 528.615 497.003 523.058 491.461L504.027 472.486C498.028 466.505 489.299 464.166 481.113 466.346L455.145 473.264C447.561 475.284 439.772 470.787 437.73 463.209L430.736 437.262C428.532 429.081 422.142 422.692 413.962 420.488L388.014 413.494C380.436 411.451 375.939 403.663 377.96 396.079L384.877 370.111C387.058 361.924 384.719 353.196 378.738 347.197L359.763 328.166C354.221 322.609 354.221 313.615 359.763 308.058L378.738 289.027C384.719 283.028 387.058 274.299 384.877 266.113L377.96 240.145C375.939 232.561 380.436 224.772 388.014 222.73L413.962 215.736C422.142 213.532 428.532 207.142 430.736 198.962L437.73 173.014C439.772 165.436 447.561 160.939 455.145 162.96L481.113 169.877C489.299 172.058 498.028 169.719 504.027 163.738L523.058 144.763C528.615 139.221 537.609 139.221 543.166 144.763Z" stroke="url(#paint1_linear_1965_3036)" stroke-width="9.54223"/>
<g filter="url(#filter1_d_1965_3036)">
<path d="M581.604 238.045C583.867 232.831 582.179 226.742 577.537 223.392C572.896 220.043 566.567 220.348 562.232 224.078L464.029 309.328C460.192 312.677 458.811 318.043 460.614 322.762C462.417 327.481 467.021 330.678 472.122 330.678H514.895L485.395 398.954C483.132 404.169 484.82 410.258 489.462 413.607C494.103 416.956 500.432 416.652 504.767 412.922L602.97 327.672C606.807 324.323 608.188 318.957 606.385 314.237C604.582 309.518 600.017 306.359 594.877 306.359H552.104L581.604 238.045Z" fill="url(#paint2_linear_1965_3036)"/>
</g>
<path d="M403.622 580.173C403.622 565.042 398.093 557.477 387.036 557.477C375.979 557.477 370.451 565.042 370.451 580.173C370.451 595.303 375.979 602.869 387.036 602.869C398.093 602.869 403.622 595.303 403.622 580.173ZM408.248 604.265C403.069 610.026 395.998 612.907 387.036 612.907C378.074 612.907 370.974 610.026 365.737 604.265C360.558 598.504 357.968 590.473 357.968 580.173C357.968 569.872 360.558 561.841 365.737 556.08C370.974 550.319 378.074 547.438 387.036 547.438C395.998 547.438 403.069 550.319 408.248 556.08C413.486 561.841 416.105 569.872 416.105 580.173C416.105 590.473 413.486 598.504 408.248 604.265ZM439.357 612.907C434.236 612.907 430.511 611.51 428.184 608.717C425.856 605.866 424.692 601.064 424.692 594.314V571.618C424.692 570.279 425.187 569.116 426.176 568.126C427.165 567.137 428.329 566.642 429.668 566.642H431.064C432.403 566.642 433.567 567.137 434.556 568.126C435.545 569.116 436.04 570.279 436.04 571.618V593.092C436.04 597.165 436.593 599.988 437.698 601.559C438.804 603.13 440.666 603.916 443.285 603.916C445.671 603.916 447.883 602.898 449.919 600.861C452.014 598.824 453.062 596.642 453.062 594.314V571.618C453.062 570.279 453.556 569.116 454.546 568.126C455.535 567.137 456.699 566.642 458.037 566.642H459.783C461.122 566.642 462.257 567.137 463.188 568.126C464.177 569.116 464.672 570.279 464.672 571.618V607.059C464.672 608.397 464.177 609.561 463.188 610.55C462.257 611.54 461.122 612.034 459.783 612.034H458.649C457.252 612.034 456.059 611.569 455.07 610.638C454.138 609.648 453.644 608.455 453.586 607.059L453.498 606.447C453.498 606.389 453.469 606.36 453.411 606.36C453.353 606.36 453.295 606.389 453.236 606.447C449.279 610.754 444.653 612.907 439.357 612.907ZM494.356 585.148C487.372 582.82 482.309 579.998 479.167 576.681C476.083 573.364 474.54 569.348 474.54 564.635C474.54 559.339 476.315 555.149 479.865 552.064C483.415 548.98 488.391 547.438 494.792 547.438C500.204 547.438 504.918 548.049 508.934 549.271C510.33 549.678 511.436 550.522 512.251 551.803C513.124 553.025 513.56 554.392 513.56 555.905V556.691C513.56 557.797 513.065 558.67 512.076 559.31C511.087 559.892 510.068 559.979 509.021 559.572C504.656 557.884 500.204 557.04 495.665 557.04C492.755 557.04 490.544 557.709 489.031 559.048C487.518 560.386 486.761 562.249 486.761 564.635C486.761 568.825 489.497 571.822 494.967 573.626C502.823 576.128 508.264 578.98 511.29 582.18C514.375 585.381 515.917 589.513 515.917 594.576C515.917 606.797 508.381 612.907 493.308 612.907C488.595 612.907 484.317 612.18 480.476 610.725C479.08 610.201 477.974 609.299 477.159 608.019C476.403 606.738 476.024 605.313 476.024 603.741V602.694C476.024 601.588 476.49 600.803 477.421 600.337C478.352 599.813 479.312 599.784 480.302 600.25C484.143 602.17 488.187 603.13 492.435 603.13C499.826 603.13 503.521 600.337 503.521 594.75C503.521 592.481 502.823 590.618 501.426 589.164C500.03 587.651 497.673 586.312 494.356 585.148ZM537.327 583.402V595.274C537.327 597.602 538.316 599.668 540.295 601.472C542.331 603.276 544.688 604.178 547.365 604.178C550.45 604.178 552.894 602.927 554.698 600.424C556.502 597.922 557.404 594.227 557.404 589.338C557.404 579.445 554.058 574.499 547.365 574.499C544.688 574.499 542.331 575.401 540.295 577.205C538.316 579.009 537.327 581.075 537.327 583.402ZM530.78 631.238C529.441 631.238 528.277 630.744 527.288 629.754C526.299 628.765 525.804 627.601 525.804 626.263V571.618C525.804 570.279 526.299 569.116 527.288 568.126C528.277 567.137 529.441 566.642 530.78 566.642H531.827C533.224 566.642 534.417 567.137 535.406 568.126C536.396 569.057 536.919 570.221 536.978 571.618V572.229C536.978 572.287 537.007 572.316 537.065 572.316C537.123 572.316 537.181 572.287 537.239 572.229C539.334 569.901 541.429 568.243 543.524 567.253C545.62 566.264 548.064 565.769 550.857 565.769C556.327 565.769 560.692 567.835 563.951 571.967C567.21 576.041 568.839 581.831 568.839 589.338C568.839 596.613 567.122 602.374 563.689 606.622C560.314 610.812 556.036 612.907 550.857 612.907C545.794 612.907 541.4 611.074 537.676 607.408C537.618 607.349 537.56 607.32 537.501 607.32C537.443 607.32 537.414 607.349 537.414 607.408V626.263C537.414 627.601 536.919 628.765 535.93 629.754C534.999 630.744 533.864 631.238 532.526 631.238H530.78ZM599.617 590.211C591.295 590.211 587.134 592.772 587.134 597.893C587.134 599.755 587.658 601.268 588.706 602.432C589.811 603.596 591.208 604.178 592.896 604.178C596.213 604.178 598.89 603.159 600.927 601.123C602.963 599.028 603.982 596.176 603.982 592.568V590.997C603.982 590.473 603.72 590.211 603.196 590.211H599.617ZM589.753 612.907C585.796 612.907 582.508 611.627 579.889 609.066C577.329 606.447 576.048 603.072 576.048 598.94C576.048 593.877 577.969 589.949 581.81 587.156C585.709 584.363 591.645 582.966 599.617 582.966H603.196C603.72 582.966 603.982 582.704 603.982 582.18V581.482C603.982 578.805 603.342 576.943 602.061 575.895C600.781 574.79 598.511 574.237 595.253 574.237C591.877 574.237 587.745 574.848 582.857 576.07C581.81 576.361 580.849 576.186 579.976 575.546C579.104 574.848 578.667 573.946 578.667 572.84C578.667 571.502 579.074 570.309 579.889 569.261C580.704 568.155 581.751 567.486 583.032 567.253C587.454 566.264 591.615 565.769 595.514 565.769C602.963 565.769 608.172 567.108 611.14 569.785C614.108 572.462 615.592 577.146 615.592 583.839V607.059C615.592 608.397 615.097 609.561 614.108 610.55C613.177 611.54 612.042 612.034 610.703 612.034H609.743C608.346 612.034 607.153 611.569 606.164 610.638C605.175 609.648 604.651 608.455 604.593 607.059V605.836C604.593 605.778 604.564 605.749 604.506 605.749C604.389 605.749 604.331 605.778 604.331 605.836C600.781 610.55 595.922 612.907 589.753 612.907ZM632.138 612.034C630.799 612.034 629.635 611.54 628.646 610.55C627.657 609.561 627.162 608.397 627.162 607.059V571.618C627.162 570.279 627.657 569.116 628.646 568.126C629.635 567.137 630.799 566.642 632.138 566.642H633.883C635.222 566.642 636.386 567.137 637.375 568.126C638.364 569.116 638.859 570.279 638.859 571.618V575.284C638.859 575.342 638.888 575.371 638.946 575.371C639.063 575.371 639.121 575.342 639.121 575.284C640.809 572.956 643.02 571.065 645.755 569.61C648.49 568.097 651.487 567.166 654.746 566.817C655.968 566.7 657.016 567.108 657.889 568.039C658.762 568.912 659.198 569.959 659.198 571.181C659.198 572.404 658.762 573.451 657.889 574.324C657.016 575.197 655.968 575.692 654.746 575.808C644.446 576.623 639.296 581.86 639.296 591.521V607.059C639.296 608.397 638.801 609.561 637.812 610.55C636.822 611.54 635.658 612.034 634.32 612.034H632.138ZM674.941 612.034C673.603 612.034 672.439 611.54 671.45 610.55C670.46 609.561 669.966 608.397 669.966 607.059V551.541C669.966 550.202 670.46 549.038 671.45 548.049C672.439 547.06 673.603 546.565 674.941 546.565H676.687C678.026 546.565 679.19 547.06 680.179 548.049C681.168 549.038 681.663 550.202 681.663 551.541V585.148C681.663 585.206 681.692 585.235 681.75 585.235H681.838L695.106 570.309C697.259 567.864 699.994 566.642 703.311 566.642H706.978C707.909 566.642 708.549 567.079 708.898 567.952C709.305 568.825 709.189 569.61 708.549 570.309L692.574 587.942C692.284 588.291 692.284 588.669 692.574 589.076L708.724 608.281C709.364 609.037 709.451 609.852 708.985 610.725C708.578 611.598 707.909 612.034 706.978 612.034H703.311C699.994 612.034 697.288 610.754 695.193 608.193L681.838 592.044C681.838 591.986 681.808 591.957 681.75 591.957C681.692 591.957 681.663 591.986 681.663 592.044V607.059C681.663 608.397 681.168 609.561 680.179 610.55C679.19 611.54 678.026 612.034 676.687 612.034H674.941Z" fill="url(#paint3_linear_1965_3036)"/>
<path d="M1093.62 338.973C1091.78 338.973 1090.18 338.293 1088.82 336.933C1087.54 335.573 1086.9 333.973 1086.9 332.133V258.213C1086.9 256.373 1087.54 254.773 1088.82 253.413C1090.18 252.053 1091.78 251.373 1093.62 251.373H1096.26C1100.82 251.373 1104.18 253.373 1106.34 257.373L1135.98 310.893C1135.98 310.973 1136.02 311.013 1136.1 311.013C1136.18 311.013 1136.22 310.973 1136.22 310.893V258.213C1136.22 256.373 1136.9 254.773 1138.26 253.413C1139.62 252.053 1141.22 251.373 1143.06 251.373H1145.7C1147.54 251.373 1149.1 252.053 1150.38 253.413C1151.74 254.773 1152.42 256.373 1152.42 258.213V332.133C1152.42 333.973 1151.74 335.573 1150.38 336.933C1149.1 338.293 1147.54 338.973 1145.7 338.973H1143.06C1138.5 338.973 1135.14 336.973 1132.98 332.973L1103.34 279.453C1103.34 279.373 1103.3 279.333 1103.22 279.333C1103.14 279.333 1103.1 279.373 1103.1 279.453V332.133C1103.1 333.973 1102.42 335.573 1101.06 336.933C1099.7 338.293 1098.1 338.973 1096.26 338.973H1093.62ZM1195.63 286.533C1191.55 286.533 1188.39 287.693 1186.15 290.013C1183.99 292.253 1182.63 295.893 1182.07 300.933C1182.07 301.573 1182.39 301.893 1183.03 301.893H1206.55C1207.19 301.893 1207.51 301.573 1207.51 300.933C1207.19 291.333 1203.23 286.533 1195.63 286.533ZM1198.63 340.173C1188.15 340.173 1180.07 337.453 1174.39 332.013C1168.79 326.493 1165.99 318.413 1165.99 307.773C1165.99 297.213 1168.51 289.173 1173.55 283.653C1178.59 278.133 1185.87 275.373 1195.39 275.373C1213.15 275.373 1222.27 285.453 1222.75 305.613C1222.83 307.533 1222.15 309.133 1220.71 310.413C1219.27 311.693 1217.59 312.333 1215.67 312.333H1182.91C1182.19 312.333 1181.91 312.693 1182.07 313.413C1182.63 318.773 1184.39 322.693 1187.35 325.173C1190.39 327.573 1194.79 328.773 1200.55 328.773C1204.15 328.773 1208.15 328.173 1212.55 326.973C1213.99 326.573 1215.31 326.813 1216.51 327.693C1217.79 328.573 1218.43 329.773 1218.43 331.293C1218.43 333.133 1217.87 334.773 1216.75 336.213C1215.71 337.573 1214.31 338.413 1212.55 338.733C1208.07 339.693 1203.43 340.173 1198.63 340.173ZM1243.65 332.373L1231.65 283.173C1231.25 281.493 1231.57 279.973 1232.61 278.613C1233.73 277.253 1235.13 276.573 1236.81 276.573H1239.81C1241.81 276.573 1243.57 277.213 1245.09 278.493C1246.61 279.773 1247.53 281.373 1247.85 283.293L1255.29 325.653C1255.29 325.733 1255.33 325.773 1255.41 325.773C1255.57 325.773 1255.65 325.733 1255.65 325.653L1263.21 283.293C1263.61 281.373 1264.57 279.773 1266.09 278.493C1267.61 277.213 1269.33 276.573 1271.25 276.573H1277.25C1279.25 276.573 1281.01 277.213 1282.53 278.493C1284.05 279.773 1284.97 281.373 1285.29 283.293L1292.85 325.653C1292.85 325.733 1292.93 325.773 1293.09 325.773C1293.17 325.773 1293.21 325.733 1293.21 325.653L1300.65 283.293C1301.05 281.373 1302.01 279.773 1303.53 278.493C1305.05 277.213 1306.77 276.573 1308.69 276.573H1311.21C1312.97 276.573 1314.37 277.253 1315.41 278.613C1316.53 279.973 1316.85 281.493 1316.37 283.173L1304.37 332.373C1303.89 334.293 1302.85 335.893 1301.25 337.173C1299.73 338.373 1297.97 338.973 1295.97 338.973H1289.97C1288.05 338.973 1286.33 338.333 1284.81 337.053C1283.29 335.773 1282.33 334.173 1281.93 332.253L1274.13 291.093C1274.13 291.013 1274.09 290.973 1274.01 290.973C1273.93 290.973 1273.89 291.013 1273.89 291.093L1266.09 332.253C1265.77 334.173 1264.85 335.773 1263.33 337.053C1261.81 338.333 1260.05 338.973 1258.05 338.973H1252.05C1250.13 338.973 1248.37 338.373 1246.77 337.173C1245.17 335.893 1244.13 334.293 1243.65 332.373ZM1080.07 485.773C1080.07 507.373 1069.27 518.173 1047.67 518.173C1026.07 518.173 1015.27 507.373 1015.27 485.773V436.213C1015.27 434.373 1015.95 432.773 1017.31 431.413C1018.67 430.053 1020.27 429.373 1022.11 429.373H1025.47C1027.31 429.373 1028.91 430.053 1030.27 431.413C1031.63 432.773 1032.31 434.373 1032.31 436.213V486.733C1032.31 492.973 1033.55 497.493 1036.03 500.293C1038.59 503.013 1042.55 504.373 1047.91 504.373C1053.27 504.373 1057.19 503.013 1059.67 500.293C1062.23 497.493 1063.51 492.973 1063.51 486.733V436.213C1063.51 434.373 1064.19 432.773 1065.55 431.413C1066.91 430.053 1068.51 429.373 1070.35 429.373H1073.23C1075.07 429.373 1076.67 430.053 1078.03 431.413C1079.39 432.773 1080.07 434.373 1080.07 436.213V485.773ZM1112.44 477.613V493.933C1112.44 497.133 1113.8 499.973 1116.52 502.453C1119.32 504.933 1122.56 506.173 1126.24 506.173C1130.48 506.173 1133.84 504.453 1136.32 501.013C1138.8 497.573 1140.04 492.493 1140.04 485.773C1140.04 472.173 1135.44 465.373 1126.24 465.373C1122.56 465.373 1119.32 466.613 1116.52 469.093C1113.8 471.573 1112.44 474.413 1112.44 477.613ZM1103.44 543.373C1101.6 543.373 1100 542.693 1098.64 541.333C1097.28 539.973 1096.6 538.373 1096.6 536.533V461.413C1096.6 459.573 1097.28 457.973 1098.64 456.613C1100 455.253 1101.6 454.573 1103.44 454.573H1104.88C1106.8 454.573 1108.44 455.253 1109.8 456.613C1111.16 457.893 1111.88 459.493 1111.96 461.413V462.253C1111.96 462.333 1112 462.373 1112.08 462.373C1112.16 462.373 1112.24 462.333 1112.32 462.253C1115.2 459.053 1118.08 456.773 1120.96 455.413C1123.84 454.053 1127.2 453.373 1131.04 453.373C1138.56 453.373 1144.56 456.213 1149.04 461.893C1153.52 467.493 1155.76 475.453 1155.76 485.773C1155.76 495.773 1153.4 503.693 1148.68 509.533C1144.04 515.293 1138.16 518.173 1131.04 518.173C1124.08 518.173 1118.04 515.653 1112.92 510.613C1112.84 510.533 1112.76 510.493 1112.68 510.493C1112.6 510.493 1112.56 510.533 1112.56 510.613V536.533C1112.56 538.373 1111.88 539.973 1110.52 541.333C1109.24 542.693 1107.68 543.373 1105.84 543.373H1103.44ZM1195.88 465.373C1186.68 465.373 1182.08 472.173 1182.08 485.773C1182.08 492.573 1183.32 497.693 1185.8 501.133C1188.28 504.493 1191.64 506.173 1195.88 506.173C1199.64 506.173 1202.88 504.933 1205.6 502.453C1208.32 499.973 1209.68 497.133 1209.68 493.933V477.613C1209.68 474.413 1208.32 471.573 1205.6 469.093C1202.88 466.613 1199.64 465.373 1195.88 465.373ZM1191.08 518.173C1183.96 518.173 1178.04 515.293 1173.32 509.533C1168.6 503.693 1166.24 495.773 1166.24 485.773C1166.24 475.453 1168.48 467.493 1172.96 461.893C1177.52 456.213 1183.56 453.373 1191.08 453.373C1197.88 453.373 1203.88 455.853 1209.08 460.813C1209.16 460.893 1209.24 460.933 1209.32 460.933C1209.4 460.933 1209.44 460.893 1209.44 460.813V433.813C1209.44 431.973 1210.12 430.373 1211.48 429.013C1212.84 427.653 1214.44 426.973 1216.28 426.973H1218.68C1220.52 426.973 1222.12 427.653 1223.48 429.013C1224.84 430.373 1225.52 431.973 1225.52 433.813V510.133C1225.52 511.973 1224.84 513.573 1223.48 514.933C1222.12 516.293 1220.52 516.973 1218.68 516.973H1217.36C1215.44 516.973 1213.8 516.333 1212.44 515.053C1211.16 513.693 1210.48 512.053 1210.4 510.133L1210.28 509.293C1210.28 509.213 1210.24 509.173 1210.16 509.173C1210.08 509.173 1210 509.213 1209.92 509.293C1204.64 515.213 1198.36 518.173 1191.08 518.173ZM1272.13 486.973C1260.69 486.973 1254.97 490.493 1254.97 497.533C1254.97 500.093 1255.69 502.173 1257.13 503.773C1258.65 505.373 1260.57 506.173 1262.89 506.173C1267.45 506.173 1271.13 504.773 1273.93 501.973C1276.73 499.093 1278.13 495.173 1278.13 490.213V488.053C1278.13 487.333 1277.77 486.973 1277.05 486.973H1272.13ZM1258.57 518.173C1253.13 518.173 1248.61 516.413 1245.01 512.893C1241.49 509.293 1239.73 504.653 1239.73 498.973C1239.73 492.013 1242.37 486.613 1247.65 482.773C1253.01 478.933 1261.17 477.013 1272.13 477.013H1277.05C1277.77 477.013 1278.13 476.653 1278.13 475.933V474.973C1278.13 471.293 1277.25 468.733 1275.49 467.293C1273.73 465.773 1270.61 465.013 1266.13 465.013C1261.49 465.013 1255.81 465.853 1249.09 467.533C1247.65 467.933 1246.33 467.693 1245.13 466.813C1243.93 465.853 1243.33 464.613 1243.33 463.093C1243.33 461.253 1243.89 459.613 1245.01 458.173C1246.13 456.653 1247.57 455.733 1249.33 455.413C1255.41 454.053 1261.13 453.373 1266.49 453.373C1276.73 453.373 1283.89 455.213 1287.97 458.893C1292.05 462.573 1294.09 469.013 1294.09 478.213V510.133C1294.09 511.973 1293.41 513.573 1292.05 514.933C1290.77 516.293 1289.21 516.973 1287.37 516.973H1286.05C1284.13 516.973 1282.49 516.333 1281.13 515.053C1279.77 513.693 1279.05 512.053 1278.97 510.133V508.453C1278.97 508.373 1278.93 508.333 1278.85 508.333C1278.69 508.333 1278.61 508.373 1278.61 508.453C1273.73 514.933 1267.05 518.173 1258.57 518.173ZM1309.12 468.613C1307.52 468.613 1306.16 468.053 1305.04 466.933C1303.92 465.733 1303.36 464.333 1303.36 462.733C1303.36 461.133 1303.92 459.773 1305.04 458.653C1306.16 457.533 1307.52 456.973 1309.12 456.973H1314.88C1315.6 456.973 1315.96 456.613 1315.96 455.893V441.013C1315.96 439.173 1316.6 437.573 1317.88 436.213C1319.24 434.853 1320.84 434.173 1322.68 434.173H1325.08C1326.92 434.173 1328.52 434.853 1329.88 436.213C1331.24 437.573 1331.92 439.173 1331.92 441.013V455.893C1331.92 456.613 1332.28 456.973 1333 456.973H1346.68C1348.28 456.973 1349.64 457.533 1350.76 458.653C1351.96 459.773 1352.56 461.133 1352.56 462.733C1352.56 464.333 1351.96 465.733 1350.76 466.933C1349.64 468.053 1348.28 468.613 1346.68 468.613H1333C1332.28 468.613 1331.92 468.933 1331.92 469.573V493.813C1331.92 499.013 1332.48 502.373 1333.6 503.893C1334.72 505.413 1337.04 506.173 1340.56 506.173C1342.48 506.173 1343.92 506.093 1344.88 505.933C1346.48 505.773 1347.88 506.133 1349.08 507.013C1350.28 507.893 1350.88 509.093 1350.88 510.613C1350.88 512.373 1350.28 513.973 1349.08 515.413C1347.96 516.773 1346.56 517.533 1344.88 517.693C1341.36 518.013 1338.72 518.173 1336.96 518.173C1329.2 518.173 1323.76 516.533 1320.64 513.253C1317.52 509.893 1315.96 503.933 1315.96 495.373V469.573C1315.96 468.933 1315.6 468.613 1314.88 468.613H1309.12ZM1393.44 464.533C1389.36 464.533 1386.2 465.693 1383.96 468.013C1381.8 470.253 1380.44 473.893 1379.88 478.933C1379.88 479.573 1380.2 479.893 1380.84 479.893H1404.36C1405 479.893 1405.32 479.573 1405.32 478.933C1405 469.333 1401.04 464.533 1393.44 464.533ZM1396.44 518.173C1385.96 518.173 1377.88 515.453 1372.2 510.013C1366.6 504.493 1363.8 496.413 1363.8 485.773C1363.8 475.213 1366.32 467.173 1371.36 461.653C1376.4 456.133 1383.68 453.373 1393.2 453.373C1410.96 453.373 1420.08 463.453 1420.56 483.613C1420.64 485.533 1419.96 487.133 1418.52 488.413C1417.08 489.693 1415.4 490.333 1413.48 490.333H1380.72C1380 490.333 1379.72 490.693 1379.88 491.413C1380.44 496.773 1382.2 500.693 1385.16 503.173C1388.2 505.573 1392.6 506.773 1398.36 506.773C1401.96 506.773 1405.96 506.173 1410.36 504.973C1411.8 504.573 1413.12 504.813 1414.32 505.693C1415.6 506.573 1416.24 507.773 1416.24 509.293C1416.24 511.133 1415.68 512.773 1414.56 514.213C1413.52 515.573 1412.12 516.413 1410.36 516.733C1405.88 517.693 1401.24 518.173 1396.44 518.173Z" fill="url(#paint4_linear_1965_3036)"/>
<path d="M1777.68 248.69C1756.38 236.852 1730.19 252.26 1730.19 276.636V488.361C1730.19 512.736 1756.38 528.144 1777.68 516.307L1968.24 410.443C1990.16 398.264 1990.16 366.733 1968.24 354.552L1777.68 248.69Z" fill="#71D0FF"/>
<path fill-rule="evenodd" clip-rule="evenodd" d="M1936.48 336.911L1777.68 248.69C1760.95 239.395 1741.21 246.899 1733.51 262.353L1740.42 269.262L1740.58 269.421L1866.6 390.192C1870.72 394.142 1877.22 394.142 1881.34 390.192L1925.82 347.567L1925.99 347.408L1936.48 336.911Z" fill="#35A954"/>
<path fill-rule="evenodd" clip-rule="evenodd" d="M1936.48 428.087L1925.99 417.59L1925.82 417.431L1881.34 374.806C1877.22 370.856 1870.72 370.856 1866.6 374.806L1740.58 495.577L1740.42 495.736L1733.51 502.646C1741.21 518.1 1760.95 525.603 1777.68 516.308L1936.48 428.087Z" fill="#F17171"/>
<path fill-rule="evenodd" clip-rule="evenodd" d="M1917.1 326.151L1910.99 332.265L1866.59 374.811C1864.49 376.82 1863.31 379.6 1863.31 382.505C1863.31 385.409 1864.49 388.189 1866.59 390.199L1910.99 432.746L1917.1 438.858L1968.24 410.45C1990.16 398.271 1990.16 366.74 1968.24 354.559L1917.1 326.151Z" fill="#FFC44D"/>
<path fill-rule="evenodd" clip-rule="evenodd" d="M1984.68 382.5H1730.19V488.362C1730.19 512.738 1756.38 528.145 1777.68 516.308L1968.24 410.445C1979.2 404.355 1984.68 393.428 1984.68 382.5Z" fill="#45B0E5"/>
<path fill-rule="evenodd" clip-rule="evenodd" d="M1752.21 518.758C1760.2 521.403 1769.32 520.956 1777.68 516.308L1936.48 428.086L1925.99 417.59L1925.82 417.431L1889.37 382.5H1858.57L1740.58 495.577L1740.42 495.736L1733.51 502.646C1736.38 508.406 1740.92 513.062 1746.36 516.155C1748.22 517.211 1750.18 518.084 1752.21 518.758Z" fill="#D64545"/>
<path fill-rule="evenodd" clip-rule="evenodd" d="M1984.68 382.5H1863.31C1863.31 385.404 1864.49 388.183 1866.59 390.194L1910.99 432.741L1917.1 438.853L1968.24 410.445C1971.43 408.669 1974.16 406.482 1976.43 404.003C1981.44 398.513 1984.17 391.593 1984.62 384.547C1984.66 383.865 1984.68 383.183 1984.68 382.5Z" fill="#E5B045"/>
</g>
<defs>
<filter id="filter0_ii_1965_3036" x="350.835" y="132.325" width="364.553" height="371.572" filterUnits="userSpaceOnUse" color-interpolation-filters="sRGB">
<feFlood flood-opacity="0" result="BackgroundImageFix"/>
<feBlend mode="normal" in="SourceGraphic" in2="BackgroundImageFix" result="shape"/>
<feColorMatrix in="SourceAlpha" type="matrix" values="0 0 0 0 0 0 0 0 0 0 0 0 0 0 0 0 0 0 127 0" result="hardAlpha"/>
<feOffset dy="-14.9167"/>
<feGaussianBlur stdDeviation="1.7549"/>
<feComposite in2="hardAlpha" operator="arithmetic" k2="-1" k3="1"/>
<feColorMatrix type="matrix" values="0 0 0 0 0.954785 0 0 0 0 0.954785 0 0 0 0 0.954785 0 0 0 1 0"/>
<feBlend mode="normal" in2="shape" result="effect1_innerShadow_1965_3036"/>
<feColorMatrix in="SourceAlpha" type="matrix" values="0 0 0 0 0 0 0 0 0 0 0 0 0 0 0 0 0 0 127 0" result="hardAlpha"/>
<feOffset dy="17.549"/>
<feGaussianBlur stdDeviation="1.7549"/>
<feComposite in2="hardAlpha" operator="arithmetic" k2="-1" k3="1"/>
<feColorMatrix type="matrix" values="0 0 0 0 0 0 0 0 0 0 0 0 0 0 0 0 0 0 1 0"/>
<feBlend mode="normal" in2="effect1_innerShadow_1965_3036" result="effect2_innerShadow_1965_3036"/>
</filter>
<filter id="filter1_d_1965_3036" x="459.831" y="221.067" width="151.217" height="211.936" filterUnits="userSpaceOnUse" color-interpolation-filters="sRGB">
<feFlood flood-opacity="0" result="BackgroundImageFix"/>
<feColorMatrix in="SourceAlpha" type="matrix" values="0 0 0 0 0 0 0 0 0 0 0 0 0 0 0 0 0 0 127 0" result="hardAlpha"/>
<feOffset dx="2.3279" dy="15.5193"/>
<feGaussianBlur stdDeviation="0.775967"/>
<feComposite in2="hardAlpha" operator="out"/>
<feColorMatrix type="matrix" values="0 0 0 0 0 0 0 0 0 0 0 0 0 0 0 0 0 0 0.3 0"/>
<feBlend mode="normal" in2="BackgroundImageFix" result="effect1_dropShadow_1965_3036"/>
<feBlend mode="normal" in="SourceGraphic" in2="effect1_dropShadow_1965_3036" result="shape"/>
</filter>
<linearGradient id="paint0_linear_1965_3036" x1="415.985" y1="213.659" x2="595.171" y2="508.223" gradientUnits="userSpaceOnUse">
<stop stop-color="#424242" stop-opacity="0.5"/>
<stop offset="1" stop-color="#262429" stop-opacity="0.5"/>
</linearGradient>
<linearGradient id="paint1_linear_1965_3036" x1="485.584" y1="227.477" x2="634.799" y2="560.173" gradientUnits="userSpaceOnUse">
<stop stop-color="#EEF2F3"/>
<stop offset="0.905" stop-color="#88878A"/>
</linearGradient>
<linearGradient id="paint2_linear_1965_3036" x1="606.241" y1="298.47" x2="532.796" y2="489.812" gradientUnits="userSpaceOnUse">
<stop stop-color="#DBDADD"/>
<stop offset="1" stop-color="#767577"/>
</linearGradient>
<linearGradient id="paint3_linear_1965_3036" x1="276.427" y1="611.752" x2="778.549" y2="575.536" gradientUnits="userSpaceOnUse">
<stop stop-color="#3C3C3C"/>
<stop offset="0.166624" stop-color="#7F9198"/>
<stop offset="0.472646" stop-color="#F0FAFF"/>
<stop offset="0.719229" stop-color="#B3AFB6"/>
<stop offset="1" stop-color="#787778"/>
</linearGradient>
<linearGradient id="paint4_linear_1965_3036" x1="776.003" y1="558.436" x2="1604.25" y2="540.198" gradientUnits="userSpaceOnUse">
<stop stop-color="#3C3C3C"/>
<stop offset="0.166624" stop-color="#7F9198"/>
<stop offset="0.472646" stop-color="#F0FAFF"/>
<stop offset="0.719229" stop-color="#B3AFB6"/>
<stop offset="1" stop-color="#787778"/>
</linearGradient>
<clipPath id="clip0_1965_3036">
<rect width="2394" height="765" fill="white"/>
</clipPath>
</defs>
</svg>
