<svg width="80" height="80" viewBox="0 0 80 80" fill="none" xmlns="http://www.w3.org/2000/svg">
<path d="M37.8818 3.5242C39.0526 2.35675 40.9474 2.35675 42.1182 3.5242L46.1223 7.51657C47.3835 8.77416 49.2186 9.26586 50.9397 8.80739L56.4035 7.35192C58.0012 6.92631 59.6421 7.87367 60.0723 9.47014L61.5438 14.9297C62.0072 16.6494 63.3506 17.9928 65.0703 18.4562L70.5299 19.9277C72.1263 20.3579 73.0737 21.9988 72.6481 23.5965L71.1926 29.0603C70.7341 30.7814 71.2258 32.6165 72.4834 33.8777L76.4758 37.8818C77.6432 39.0526 77.6432 40.9474 76.4758 42.1182L72.4834 46.1223C71.2258 47.3835 70.7341 49.2186 71.1926 50.9397L72.6481 56.4035C73.0737 58.0012 72.1263 59.6421 70.5299 60.0723L65.0703 61.5438C63.3506 62.0072 62.0073 63.3506 61.5438 65.0703L60.0723 70.5299C59.6421 72.1263 58.0012 73.0737 56.4035 72.6481L50.9397 71.1926C49.2186 70.7341 47.3835 71.2258 46.1223 72.4834L42.1182 76.4758C40.9474 77.6432 39.0526 77.6432 37.8818 76.4758L33.8777 72.4834C32.6165 71.2258 30.7814 70.7341 29.0603 71.1926L23.5965 72.6481C21.9988 73.0737 20.3579 72.1263 19.9277 70.5299L18.4562 65.0703C17.9927 63.3506 16.6494 62.0073 14.9297 61.5438L9.47014 60.0723C7.87367 59.6421 6.92631 58.0012 7.35192 56.4035L8.80739 50.9397C9.26586 49.2186 8.77417 47.3835 7.51657 46.1223L3.5242 42.1182C2.35675 40.9474 2.35675 39.0526 3.5242 37.8818L7.51657 33.8777C8.77416 32.6165 9.26586 30.7814 8.80739 29.0603L7.35192 23.5965C6.92631 21.9988 7.87367 20.3579 9.47014 19.9277L14.9297 18.4562C16.6494 17.9928 17.9927 16.6494 18.4562 14.9297L19.9277 9.47014C20.3579 7.87367 21.9988 6.92631 23.5965 7.35192L29.0603 8.80739C30.7814 9.26586 32.6165 8.77417 33.8777 7.51657L37.8818 3.5242Z" fill="#0B332C" stroke="#23C062" stroke-width="2"/>
<path d="M50.1213 23.0721C50.5975 21.9751 50.2423 20.6938 49.2657 19.9892C48.2891 19.2845 46.9574 19.3486 46.0453 20.1333L25.3831 38.0702C24.576 38.7748 24.2854 39.9039 24.6648 40.8968C25.0441 41.8898 26.0127 42.5624 27.0861 42.5624H36.0855L29.8787 56.9279C29.4025 58.0249 29.7577 59.3062 30.7343 60.0108C31.7109 60.7155 33.0426 60.6514 33.9547 59.8667L54.6169 41.9298C55.424 41.2252 55.7146 40.0961 55.3352 39.1032C54.9559 38.1102 53.9954 37.4456 52.9139 37.4456H43.9145L50.1213 23.0721Z" fill="#23C062"/>
</svg>
